<?xml version="1.0" standalone="no"?>
<!DOCTYPE svg PUBLIC "-//W3C//DTD SVG 20010904//EN"
 "http://www.w3.org/TR/2001/REC-SVG-20010904/DTD/svg10.dtd">
<svg version="1.0" xmlns="http://www.w3.org/2000/svg"
 width="80.000000pt" height="80.000000pt" viewBox="0 0 80.000000 80.000000"
 preserveAspectRatio="xMidYMid meet">
<metadata>
Created by potrace 1.11, written by Peter Selinger 2001-2013
</metadata>
<g transform="translate(0.000000,80.000000) scale(0.100000,-0.100000)"
fill="#000000" stroke="none">
<path d="M30 685 c0 -58 3 -75 14 -75 8 0 17 6 19 13 4 10 6 10 6 0 1 -19 19
-16 24 5 4 16 5 16 6 0 0 -10 8 -18 16 -18 12 0 15 15 15 75 0 68 -2 75 -20
75 -15 0 -20 -7 -20 -25 0 -14 -4 -25 -10 -25 -5 0 -10 11 -10 25 0 18 -5 25
-20 25 -18 0 -20 -7 -20 -75z"/>
<path d="M167 753 c-3 -5 -8 -30 -11 -58 -4 -27 -9 -58 -12 -67 -4 -12 0 -18
10 -18 9 0 16 7 16 15 0 8 5 15 10 15 6 0 13 -7 16 -15 4 -8 11 -15 16 -15 10
0 3 104 -9 136 -5 15 -29 19 -36 7z m20 -85 c-3 -7 -5 -2 -5 12 0 14 2 19 5
13 2 -7 2 -19 0 -25z"/>
<path d="M240 685 c0 -60 3 -75 15 -75 9 0 15 10 16 28 l1 27 7 -25 c5 -19 14
-26 39 -28 24 -2 32 1 32 12 0 20 19 21 26 1 4 -8 11 -15 16 -15 7 0 8 22 4
61 -9 76 -15 91 -35 87 -11 -2 -19 -22 -27 -68 l-12 -65 -1 68 c-1 51 -4 67
-15 67 -8 0 -17 -12 -19 -27 l-4 -28 -2 28 c-1 20 -6 27 -21 27 -18 0 -20 -7
-20 -75z m127 -17 c-3 -7 -5 -2 -5 12 0 14 2 19 5 13 2 -7 2 -19 0 -25z"/>
<path d="M432 748 c-12 -12 -16 -95 -6 -122 9 -22 51 -20 64 3 17 32 12 61
-10 61 -16 0 -19 -5 -13 -30 3 -19 1 -30 -6 -30 -7 0 -11 20 -11 50 0 28 5 50
10 50 6 0 10 -4 10 -10 0 -5 7 -10 15 -10 18 0 18 5 5 31 -12 21 -40 25 -58 7z"/>
<path d="M510 685 l0 -75 35 0 c19 0 35 5 35 10 0 6 -9 10 -20 10 -15 0 -20 7
-20 25 0 16 6 25 15 25 8 0 15 5 15 10 0 6 -7 10 -15 10 -8 0 -15 9 -15 20 0
13 7 20 20 20 11 0 20 5 20 10 0 6 -16 10 -35 10 l-35 0 0 -75z"/>
<path d="M36 513 c8 -25 14 -59 14 -75 0 -17 5 -28 14 -28 9 0 15 17 19 53 3
28 8 62 12 75 10 29 -13 30 -24 0 l-8 -23 -7 23 c-4 12 -13 22 -21 22 -11 0
-11 -8 1 -47z"/>
<path d="M122 548 c-12 -12 -16 -95 -6 -122 9 -22 51 -20 64 3 5 11 10 36 10
56 0 64 -35 96 -68 63z m38 -68 c0 -27 -4 -50 -10 -50 -5 0 -10 23 -10 50 0
28 5 50 10 50 6 0 10 -22 10 -50z"/>
<path d="M200 501 c0 -75 6 -91 36 -91 31 0 44 27 44 94 0 43 -3 56 -15 56
-12 0 -15 -14 -15 -65 0 -37 -4 -65 -10 -65 -6 0 -10 28 -10 65 0 51 -3 65
-15 65 -12 0 -15 -13 -15 -59z"/>
<path d="M290 485 c0 -60 3 -75 15 -75 10 0 15 10 15 31 0 17 4 28 10 24 6 -3
10 -17 10 -31 0 -14 6 -24 15 -24 11 0 13 13 11 63 -3 77 -9 87 -47 87 l-29 0
0 -75z m50 30 c0 -8 -4 -17 -10 -20 -6 -4 -10 5 -10 20 0 15 4 24 10 20 6 -3
10 -12 10 -20z"/>
<path d="M543 494 c-3 -8 0 -27 5 -44 7 -17 7 -32 2 -35 -5 -3 -16 -29 -25
-57 -11 -40 -13 -60 -4 -90 11 -41 -3 -108 -22 -108 -5 0 -9 -4 -9 -10 0 -5
11 -10 25 -10 16 0 25 6 25 15 0 8 5 15 11 15 5 0 7 5 4 10 -3 6 -2 10 3 10 6
0 12 -7 16 -15 3 -8 1 -15 -4 -15 -6 0 -10 -4 -10 -10 0 -6 35 -10 85 -10 76
0 85 -2 85 -19 0 -17 -14 -18 -310 -20 -269 -1 -310 1 -310 14 0 10 -10 15
-27 15 -26 0 -26 1 -7 15 15 11 16 14 3 15 -16 0 -83 -59 -75 -67 2 -3 106 -4
230 -4 148 1 226 -2 226 -9 0 -6 -82 -11 -232 -12 l-233 -2 305 -8 c412 -11
409 -11 460 -2 39 6 42 8 20 14 l-25 7 25 11 c18 8 20 11 8 11 -10 1 -18 7
-18 14 0 6 -11 25 -25 41 -16 19 -25 41 -25 63 0 40 -12 67 -47 105 -29 30
-43 109 -24 132 13 15 4 49 -10 40 -5 -3 -15 -2 -21 3 -22 13 -69 12 -75 -3z
m-493 -384 c0 -5 -5 -10 -11 -10 -5 0 -7 5 -4 10 3 6 8 10 11 10 2 0 4 -4 4
-10z m37 -6 c-3 -3 -12 -4 -19 -1 -8 3 -5 6 6 6 11 1 17 -2 13 -5z m611 -26
c-19 -6 -37 -6 -55 0 -25 9 -21 10 27 10 48 0 52 -1 28 -10z"/>
<path d="M34 346 c-3 -7 -4 -40 -2 -72 3 -54 5 -59 27 -62 25 -4 41 12 41 41
0 25 -28 21 -33 -5 -2 -13 -5 2 -5 32 0 30 2 49 5 43 6 -17 33 -17 33 0 0 32
-55 51 -66 23z"/>
<path d="M127 353 c-3 -5 -8 -30 -11 -58 -4 -27 -9 -58 -12 -67 -4 -12 0 -18
10 -18 9 0 16 7 16 15 0 8 5 15 10 15 6 0 13 -7 16 -15 4 -8 11 -15 16 -15 10
0 3 104 -9 136 -5 15 -29 19 -36 7z m20 -85 c-3 -7 -5 -2 -5 12 0 14 2 19 5
13 2 -7 2 -19 0 -25z"/>
<path d="M190 350 c0 -5 5 -10 10 -10 6 0 10 -28 10 -65 0 -51 3 -65 15 -65
12 0 15 14 15 65 0 37 4 65 10 65 6 0 10 5 10 10 0 6 -16 10 -35 10 -19 0 -35
-4 -35 -10z"/>
<path d="M282 348 c-19 -19 -14 -42 13 -68 25 -24 33 -50 15 -50 -5 0 -10 5
-10 10 0 6 -7 10 -16 10 -11 0 -14 -5 -10 -16 3 -9 6 -18 6 -20 0 -14 51 -1
60 16 12 22 8 33 -23 67 -11 13 -17 26 -13 30 4 4 11 1 15 -6 14 -22 33 -3 21
20 -12 21 -40 25 -58 7z"/>
<path d="M63 173 c9 -2 23 -2 30 0 6 3 -1 5 -18 5 -16 0 -22 -2 -12 -5z"/>
<path d="M30 40 c0 -5 7 -10 15 -10 8 0 15 5 15 10 0 6 -7 10 -15 10 -8 0 -15
-4 -15 -10z"/>
</g>
</svg>
